<?xml version="1.0" encoding="iso-8859-1"?>
<!-- Generator: Adobe Illustrator 19.0.0, SVG Export Plug-In . SVG Version: 6.00 Build 0)  -->
<svg version="1.1" id="Capa_1" xmlns="http://www.w3.org/2000/svg" xmlns:xlink="http://www.w3.org/1999/xlink" x="0px" y="0px"
	 viewBox="0 0 512 512" style="enable-background:new 0 0 512 512;" xml:space="preserve">
<path style="fill:#4CAF50;" d="M256,0C114.615,0,0,114.615,0,256s114.615,256,256,256s256-114.615,256-256
	C511.847,114.678,397.322,0.153,256,0z"/>
<g>
	<path style="fill:#37474F;" d="M362.667,373.333c-2.192-0.003-4.33-0.681-6.123-1.941c-62.784-44.139-166.677-46.635-236.8-30.336
		c-5.738,1.337-11.473-2.23-12.811-7.968c-1.337-5.738,2.23-11.473,7.968-12.811c74.496-17.365,185.749-14.229,253.867,33.664
		c4.819,3.389,5.978,10.042,2.59,14.861C369.367,371.633,366.127,373.322,362.667,373.333z"/>
	<path style="fill:#37474F;" d="M394.667,309.333c-2.235,0.001-4.414-0.701-6.229-2.005
		c-72.533-52.032-161.344-65.045-279.616-40.896c-5.721,1.406-11.498-2.092-12.904-7.812c-1.406-5.721,2.092-11.498,7.812-12.904
		c0.273-0.067,0.548-0.123,0.825-0.169c124.544-25.429,218.667-11.328,296.384,44.437c4.784,3.438,5.874,10.104,2.436,14.887
		c-2.005,2.789-5.23,4.442-8.665,4.441L394.667,309.333z"/>
	<path style="fill:#37474F;" d="M426.667,224c-2.137,0.003-4.225-0.636-5.995-1.835c-91.691-62.272-230.976-62.613-321.109-30.784
		c-5.485,2.15-11.674-0.553-13.824-6.038c-2.15-5.485,0.553-11.674,6.038-13.824c0.218-0.085,0.438-0.163,0.661-0.234
		c95.189-33.664,242.624-33.045,340.224,33.216c4.878,3.303,6.154,9.935,2.851,14.813C433.525,222.249,430.21,224.005,426.667,224z"
		/>
</g>
<g>
</g>
<g>
</g>
<g>
</g>
<g>
</g>
<g>
</g>
<g>
</g>
<g>
</g>
<g>
</g>
<g>
</g>
<g>
</g>
<g>
</g>
<g>
</g>
<g>
</g>
<g>
</g>
<g>
</g>
</svg>
